<?xml version="1.0" standalone="no"?>
<!DOCTYPE svg PUBLIC "-//W3C//DTD SVG 20010904//EN"
 "http://www.w3.org/TR/2001/REC-SVG-20010904/DTD/svg10.dtd">
<svg version="1.0" xmlns="http://www.w3.org/2000/svg"
 width="600.000000pt" height="600.000000pt" viewBox="0 0 600.000000 600.000000"
 preserveAspectRatio="xMidYMid meet">

<g transform="translate(0.000000,600.000000) scale(0.100000,-0.100000)"
fill="#000000" stroke="none">
<path d="M2723 5228 c-30 -15 -47 -60 -39 -108 6 -36 4 -40 -14 -40 -29 0 -77
-27 -90 -49 -5 -11 -10 -31 -10 -44 0 -15 -14 -39 -36 -61 -34 -34 -36 -40
-31 -83 3 -31 0 -54 -9 -68 -27 -42 15 -116 91 -160 17 -10 17 -13 2 -36 -36
-54 -59 -144 -66 -252 l-6 -108 -54 -19 c-66 -22 -94 -49 -93 -89 2 -66 52
-103 52 -38 0 20 7 40 18 49 19 15 67 38 82 38 18 0 10 -39 -9 -50 -32 -17
-61 -74 -61 -121 0 -56 34 -125 76 -152 25 -16 33 -29 32 -47 -4 -71 36 -130
89 -130 30 0 83 27 84 43 0 6 7 -5 14 -26 17 -46 46 -89 92 -138 l34 -36 -16
-64 c-23 -90 -45 -146 -64 -162 -20 -18 -91 -29 -189 -28 -148 1 -372 -60
-529 -144 -299 -159 -432 -409 -528 -997 -27 -162 -31 -241 -15 -282 10 -27
55 -53 136 -80 46 -15 54 -22 76 -69 38 -78 51 -115 43 -126 -16 -28 8 -788
26 -823 16 -30 47 -41 80 -28 23 10 46 9 116 -4 130 -23 323 -44 542 -57 221
-13 1017 -7 1226 10 158 13 404 40 426 47 9 2 23 18 29 35 11 26 10 36 -3 65
-17 35 -32 143 -41 305 l-6 96 49 -5 c61 -6 170 13 233 40 63 27 130 100 154
169 16 45 19 82 19 234 -1 156 -4 188 -22 244 -22 63 -22 64 -2 100 10 19 19
46 19 58 0 20 -465 737 -551 849 -104 135 -209 212 -354 257 -50 16 -98 32
-107 38 -10 5 -24 9 -33 9 -13 0 -73 77 -64 83 2 1 26 13 54 27 62 31 208 174
263 258 71 108 84 157 82 307 -2 92 2 146 13 185 9 30 18 81 22 113 4 38 14
66 26 78 40 40 19 62 -67 74 l-52 7 -22 121 c-12 67 -24 132 -27 143 -4 19 1
23 37 29 47 8 100 48 100 75 0 37 -23 32 -66 -13 -24 -25 -52 -48 -63 -52 -19
-6 -21 -16 -23 -158 l-3 -152 -65 -6 c-36 -3 -78 -11 -93 -17 -16 -7 -46 -12
-67 -12 -34 0 -41 -4 -46 -25 -3 -14 -4 -32 0 -40 4 -11 -1 -15 -19 -15 -18 0
-23 4 -18 15 3 9 -3 25 -13 36 -14 16 -26 19 -51 14 -18 -3 -55 1 -83 9 -121
36 -361 28 -459 -15 -39 -17 -91 -26 -91 -15 0 2 11 28 25 57 41 88 41 177 0
272 -5 13 -2 17 14 17 11 0 99 20 195 45 126 32 196 45 248 46 62 0 69 2 48
11 -48 21 -216 13 -335 -16 -203 -50 -331 -45 -401 16 -39 34 -43 53 -14 61
31 8 34 33 9 67 -30 40 -17 65 45 84 16 5 17 13 12 50 -6 39 -4 46 14 56 11 6
30 8 41 5 36 -12 49 12 49 87 0 80 14 94 58 59 58 -46 143 -82 222 -93 66 -10
104 -9 222 5 244 29 334 19 419 -46 52 -40 77 -86 90 -168 17 -103 24 -124 42
-127 30 -6 37 37 20 123 -27 144 -85 219 -208 265 -69 26 -207 31 -335 11
-195 -29 -305 -14 -413 60 -73 50 -95 56 -134 37z m71 -649 c12 -11 20 -109
12 -151 -3 -19 -26 -68 -51 -110 -45 -74 -46 -76 -93 -81 -30 -3 -50 -1 -54 6
-13 21 -9 172 8 258 9 46 17 86 19 89 5 9 149 -1 159 -11z m1024 -481 c15
-173 17 -168 -65 -168 -41 0 -58 5 -82 25 -44 38 -88 175 -56 175 8 0 24 18
35 40 21 41 80 78 131 79 l25 1 12 -152z m92 53 c0 -14 -5 -33 -10 -41 -7 -12
-10 -8 -10 15 0 17 -3 48 -6 70 l-6 40 16 -29 c9 -15 16 -40 16 -55z m-637 39
c31 -11 65 -20 75 -20 35 0 55 -35 48 -82 -9 -54 -41 -126 -69 -156 -73 -78
-195 -67 -279 26 -20 22 -42 58 -48 79 -10 32 -8 45 9 84 26 57 38 67 92 78
72 14 112 12 172 -9z m-583 -30 c0 -19 7 -33 21 -40 27 -15 49 3 49 41 0 27 3
29 36 29 53 0 131 -39 145 -72 6 -16 14 -28 18 -28 4 0 12 -26 19 -58 22 -109
111 -182 222 -182 68 0 125 25 167 73 30 34 63 117 63 158 0 10 12 32 26 49
24 28 32 31 73 28 l46 -3 3 -57 3 -58 -25 10 c-34 12 -46 -7 -18 -29 28 -21
43 -62 31 -84 -14 -24 -64 -22 -100 4 -33 23 -59 19 -59 -10 0 -23 75 -61 120
-61 30 0 72 31 81 59 4 10 15 6 43 -13 47 -32 96 -41 137 -27 48 17 49 16 49
-47 0 -122 -57 -232 -189 -363 -99 -99 -184 -142 -281 -142 -68 0 -105 14
-166 59 -38 29 -60 30 -74 3 -19 -35 16 -79 94 -118 61 -32 75 -35 152 -35 54
0 84 -4 84 -11 0 -6 12 -35 26 -63 29 -58 28 -67 -11 -172 -59 -156 -171 -215
-359 -189 -139 18 -258 75 -363 172 -47 43 -133 157 -133 175 0 14 27 22 98
29 40 4 76 14 95 27 43 28 85 116 93 193 6 57 8 61 26 52 10 -5 23 -7 28 -4
21 13 8 35 -41 71 -53 38 -173 171 -192 212 -11 24 -45 30 -65 10 -18 -18 -32
7 -32 59 0 34 -5 45 -27 60 -74 50 -96 92 -81 150 17 67 106 96 162 52 14 -11
26 -16 26 -11 0 11 -50 62 -61 62 -13 0 -31 40 -25 56 3 8 19 14 36 14 27 0
30 -3 30 -30z m1306 -2141 c21 -21 36 -41 33 -43 -5 -5 -230 22 -237 28 -5 6
74 47 108 56 37 10 53 3 96 -41z m-940 10 c60 -6 240 -32 399 -59 306 -51 448
-71 685 -95 210 -21 228 -20 242 10 17 38 -7 57 -84 64 l-63 6 35 13 c19 7 67
16 105 19 l71 6 32 -69 c43 -94 62 -182 62 -290 0 -205 -43 -293 -162 -325
-53 -14 -217 -14 -303 1 -326 54 -517 124 -782 288 -166 102 -228 133 -328
165 -92 29 -248 50 -338 45 l-61 -3 -37 85 c-20 47 -36 86 -35 87 5 6 180 47
226 53 86 11 216 11 336 -1z m-682 -68 l59 -6 22 -76 c30 -101 49 -134 82
-147 15 -7 91 -16 168 -22 82 -5 171 -18 215 -30 81 -23 210 -87 329 -164 l75
-48 -27 -15 c-103 -53 -459 -179 -707 -249 -163 -46 -287 -53 -354 -20 -98 49
-271 266 -352 442 -38 82 -97 245 -90 251 7 7 181 51 261 67 130 25 209 29
319 17z"/>
<path d="M3656 4158 c-19 -26 -21 -109 -4 -126 23 -23 48 -13 64 24 17 40 12
78 -13 107 -21 22 -29 22 -47 -5z"/>
<path d="M3220 4165 c-7 -8 -15 -35 -18 -60 -5 -50 15 -85 50 -85 40 0 50 119
12 147 -23 17 -29 16 -44 -2z"/>
<path d="M2597 3994 c-3 -4 8 -16 26 -28 18 -12 41 -36 52 -54 24 -38 52 -49
72 -29 25 25 8 63 -40 92 -41 23 -96 33 -110 19z"/>
<path d="M3390 3756 c0 -34 45 -84 86 -95 62 -17 144 23 144 71 0 29 -30 33
-71 10 -53 -30 -85 -28 -119 8 -34 36 -40 37 -40 6z"/>
<path d="M2918 5008 c5 -5 29 -12 53 -15 29 -4 41 -2 34 4 -5 6 -30 13 -54 16
-29 4 -40 2 -33 -5z"/>
<path d="M3596 4958 c21 -36 87 -107 95 -102 13 8 -16 58 -51 88 -33 27 -56
35 -44 14z"/>
<path d="M2830 4946 c0 -13 84 -47 128 -52 48 -5 79 6 69 24 -4 5 -39 12 -79
15 -40 3 -83 9 -95 12 -13 4 -23 5 -23 1z"/>
<path d="M2748 4848 c40 -49 217 -80 270 -47 45 29 26 37 -100 42 -68 3 -136
9 -153 13 -26 6 -28 5 -17 -8z"/>
<path d="M3573 4802 c15 -15 33 -45 40 -67 16 -46 50 -56 55 -17 4 27 -74 112
-104 112 -15 0 -14 -4 9 -28z"/>
<path d="M3888 4796 c-10 -7 -18 -21 -18 -31 0 -10 -21 -38 -46 -62 -50 -46
-49 -49 8 -33 23 7 49 25 68 48 33 41 36 51 18 75 -11 13 -16 14 -30 3z"/>
<path d="M3482 4729 c63 -64 88 -81 88 -61 0 13 -93 99 -125 115 -23 12 -14
-1 37 -54z"/>
</g>
</svg>
